<mxfile host="app.diagrams.net" modified="2023-10-12T11:19:14.695Z" agent="Mozilla/5.0 (Windows NT 10.0; Win64; x64) AppleWebKit/537.36 (KHTML, like Gecko) Chrome/118.0.0.0 Safari/537.36" version="21.5.0" etag="Vd_17Dyb4l5dezFe3_D3" type="github">
  <diagram name="Page-1" id="cWHwXb48VR9R8NVbP-rx">
    <mxGraphModel>
      <root>
        <mxCell id="0" />
        <mxCell id="1" parent="0" />
      </root>
    </mxGraphModel>
  </diagram>
</mxfile>
